<svg xmlns="http://www.w3.org/2000/svg">
  <symbol id='heart' viewBox="0 0 16 16">
    <path fill="currentcolor" d="M8 15.11a.94.94 0 0 1-.62-.23c-.64-.57-1.27-1.1-1.82-1.57-1.61-1.37-3-2.56-3.97-3.73A5.96 5.96 0 0 1 0 5.68a5 5 0 0 1 1.27-3.41 4.3 4.3 0 0 1 3.2-1.4c.92 0 1.77.3 2.51.87.38.3.72.65 1.02 1.06.3-.41.64-.77 1.02-1.06a4.02 4.02 0 0 1 2.51-.86c1.24 0 2.37.49 3.2 1.39A5 5 0 0 1 16 5.68c0 1.36-.5 2.6-1.59 3.9a33.83 33.83 0 0 1-3.97 3.73l-1.82 1.57a.94.94 0 0 1-.62.23ZM4.47 1.81c-.97 0-1.86.39-2.51 1.1A4.07 4.07 0 0 0 .94 5.67c0 1.14.42 2.16 1.37 3.3a33.3 33.3 0 0 0 3.86 3.62L8 14.17l1.83-1.57c1.58-1.35 2.95-2.51 3.86-3.62a5.01 5.01 0 0 0 1.37-3.3c0-1.08-.36-2.06-1.02-2.78a3.38 3.38 0 0 0-2.51-1.09 3.1 3.1 0 0 0-1.94.67c-.51.4-.87.9-1.08 1.26-.11.18-.3.28-.51.28-.21 0-.4-.1-.5-.28A4.54 4.54 0 0 0 6.4 2.48a3.1 3.1 0 0 0-1.94-.67Z"></path>
  </symbol>
  <symbol id='heart-filled' viewBox="0 0 16 16">
    <path fill="currentcolor" d="M8 2.56911C7.26154 1.33835 6.03077 0.476807 4.55385 0.476807C2.46154 0.476807 0.861542 2.07681 0.861542 4.16911C0.861542 8.23065 3.07693 8.84604 8 13.523C12.9231 8.84604 15.1385 8.23065 15.1385 4.16911C15.1385 2.07681 13.5385 0.476807 11.4462 0.476807C9.96923 0.476807 8.73846 1.33835 8 2.56911Z" />
  </symbol>
  <symbol id='arrow' viewBox="0 0 16 16">
    <path d="M1.50559 10C1.63834 10 1.77247 9.9583 1.88448 9.87489L7.7449 5.43216C7.88733 5.324 7.9703 5.16109 7.9703 4.98776C7.9703 4.81573 7.88733 4.65153 7.7449 4.54466L1.90937 0.125395C1.6494 -0.0713929 1.26913 -0.0322959 1.06032 0.212712C0.851513 0.45772 0.892998 0.81611 1.15297 1.0129L6.40217 4.98776L1.1267 8.98739C0.866724 9.18418 0.825239 9.54256 1.03405 9.78757C1.15435 9.92702 1.32859 10 1.50559 10Z" fill="black" fill-opacity="0.75"/>
  </symbol>
</svg>
